<?xml version="1.0" encoding="UTF-8" standalone="no"?><!DOCTYPE svg PUBLIC "-//W3C//DTD SVG 1.1//EN" "http://www.w3.org/Graphics/SVG/1.1/DTD/svg11.dtd"><svg width="100%" height="100%" viewBox="0 0 240 240" version="1.1" xmlns="http://www.w3.org/2000/svg" xmlns:xlink="http://www.w3.org/1999/xlink" xml:space="preserve" xmlns:serif="http://www.serif.com/" style="fill-rule:evenodd;clip-rule:evenodd;stroke-linejoin:round;stroke-miterlimit:1.41421;"><rect id="Artboard1" x="0" y="0" width="240" height="240" style="fill:none;"/><clipPath id="_clip1"><rect id="Artboard11" serif:id="Artboard1" x="0" y="0" width="240" height="240"/></clipPath><g clip-path="url(#_clip1)"><path d="M240,88.8c0,-49.01 -39.79,-88.8 -88.8,-88.8l-62.4,0c-49.01,0 -88.8,39.79 -88.8,88.8l0,62.4c0,49.01 39.79,88.8 88.8,88.8l62.4,0c49.01,0 88.8,-39.79 88.8,-88.8l0,-62.4Z" style="fill:#4caf50;"/><clipPath id="_clip2"><path d="M240,88.8c0,-49.01 -39.79,-88.8 -88.8,-88.8l-62.4,0c-49.01,0 -88.8,39.79 -88.8,88.8l0,62.4c0,49.01 39.79,88.8 88.8,88.8l62.4,0c49.01,0 88.8,-39.79 88.8,-88.8l0,-62.4Z"/></clipPath><g clip-path="url(#_clip2)"><clipPath id="_clip3"><rect id="iconfinder-icon" x="55.438" y="55.438" width="129.123" height="129.123"/></clipPath><g clip-path="url(#_clip3)"><rect id="canvas_background" x="51.134" y="51.134" width="2504.99" height="1730.25" style="fill:none;"/><g><path id="svg_2" d="M167.345,94.175l0,-12.912c0,-4.756 -3.852,-8.608 -8.608,-8.608l-77.474,0c-4.756,0 -8.608,3.852 -8.608,8.608l0,12.912c0,2.376 1.928,4.304 4.304,4.304l86.082,0c2.376,0 4.304,-1.928 4.304,-4.304Z" style="fill:#fbfffb;fill-rule:nonzero;"/><path id="svg_3" d="M167.345,128.608l0,-17.216c0,-2.376 -1.928,-4.304 -4.304,-4.304l-86.082,0c-2.376,0 -4.304,1.928 -4.304,4.304l0,17.216c0,2.376 1.928,4.304 4.304,4.304l86.082,0c2.376,0 4.304,-1.928 4.304,-4.304Z" style="fill:#fbfffb;fill-rule:nonzero;"/><path id="svg_4" d="M72.655,145.825l0,12.912c0,4.756 3.852,8.608 8.608,8.608l77.474,0c4.756,0 8.608,-3.852 8.608,-8.608l0,-12.912c0,-2.376 -1.928,-4.304 -4.304,-4.304l-86.082,0c-2.376,0 -4.304,1.928 -4.304,4.304Z" style="fill:#fbfffb;fill-rule:nonzero;"/></g></g><path d="M315.192,75.192l-75.192,-75.192l-75.192,75.192l75.192,75.191l75.192,-75.191Z" style="fill:#388e3c;"/><path d="M350.16,-50.52c0,-25.631 -20.809,-46.44 -46.44,-46.44l-106.08,0c-25.631,0 -46.44,20.809 -46.44,46.44l0,92.88c0,25.631 20.809,46.44 46.44,46.44l106.08,0c25.631,0 46.44,-20.809 46.44,-46.44l0,-92.88Z" style="fill:#c8e6c9;"/></g></g></svg>