<?xml version="1.0" encoding="UTF-8" standalone="no"?><!DOCTYPE svg PUBLIC "-//W3C//DTD SVG 1.1//EN" "http://www.w3.org/Graphics/SVG/1.1/DTD/svg11.dtd"><svg width="100%" height="100%" viewBox="0 0 1000 1000" version="1.1" xmlns="http://www.w3.org/2000/svg" xmlns:xlink="http://www.w3.org/1999/xlink" xml:space="preserve" xmlns:serif="http://www.serif.com/" style="fill-rule:evenodd;clip-rule:evenodd;stroke-linejoin:round;stroke-miterlimit:1.41421;"><path d="M1000,370c0,-204.209 -165.791,-370 -370,-370l-260,0c-204.209,0 -370,165.791 -370,370l0,260c0,204.209 165.791,370 370,370l260,0c204.209,0 370,-165.791 370,-370l0,-260Z" style="fill:url(#_Linear1);"/><clipPath id="_clip2"><path d="M1000,370c0,-204.209 -165.791,-370 -370,-370l-260,0c-204.209,0 -370,165.791 -370,370l0,260c0,204.209 165.791,370 370,370l260,0c204.209,0 370,-165.791 370,-370l0,-260Z"/></clipPath><g clip-path="url(#_clip2)"><g><path id="svg_2" d="M697,392.545l0,-53.727c0,-19.789 -16.029,-35.818 -35.818,-35.818l-322.364,0c-19.789,0 -35.818,16.029 -35.818,35.818l0,53.727c0,9.886 8.023,17.91 17.909,17.91l358.182,0c9.886,0 17.909,-8.024 17.909,-17.91Z" style="fill:#fff;fill-rule:nonzero;"/><path id="svg_3" d="M697,535.818l0,-71.636c0,-9.886 -8.023,-17.909 -17.909,-17.909l-358.182,0c-9.886,0 -17.909,8.023 -17.909,17.909l0,71.636c0,9.886 8.023,17.909 17.909,17.909l358.182,0c9.886,0 17.909,-8.023 17.909,-17.909Z" style="fill:#fff;fill-rule:nonzero;"/><path id="svg_4" d="M303,607.455l0,53.727c0,19.789 16.029,35.818 35.818,35.818l322.364,0c19.789,0 35.818,-16.029 35.818,-35.818l0,-53.727c0,-9.886 -8.023,-17.91 -17.909,-17.91l-358.182,0c-9.886,0 -17.909,8.024 -17.909,17.91Z" style="fill:#fff;fill-rule:nonzero;"/></g><path d="M1313.3,313.298l-313.298,-313.298l-313.298,313.298l313.298,313.299l313.298,-313.299Z" style="fill:#fff;fill-opacity:0.75;"/><path d="M1459,-210.5c0,-106.796 -86.704,-193.5 -193.5,-193.5l-442,0c-106.796,0 -193.5,86.704 -193.5,193.5l0,387c0,106.796 86.704,193.5 193.5,193.5l442,0c106.796,0 193.5,-86.704 193.5,-193.5l0,-387Z" style="fill:url(#_Linear3);"/></g><defs><linearGradient id="_Linear1" x1="0" y1="0" x2="1" y2="0" gradientUnits="userSpaceOnUse" gradientTransform="matrix(1000,1000,-1000,1000,-2.2967e-13,0)"><stop offset="0" style="stop-color:#5983e8;stop-opacity:1"/><stop offset="1" style="stop-color:#00e4d0;stop-opacity:1"/></linearGradient><linearGradient id="_Linear3" x1="0" y1="0" x2="1" y2="0" gradientUnits="userSpaceOnUse" gradientTransform="matrix(500,-500,500,500,500,500)"><stop offset="0" style="stop-color:#00e4d0;stop-opacity:1"/><stop offset="1" style="stop-color:#5983e8;stop-opacity:1"/></linearGradient></defs></svg>